<?xml version="1.0" encoding="utf-8"?>
<!-- Generator: Adobe Illustrator 24.3.0, SVG Export Plug-In . SVG Version: 6.00 Build 0)  -->
<svg version="1.1" id="Layer_1" xmlns="http://www.w3.org/2000/svg" xmlns:xlink="http://www.w3.org/1999/xlink" x="0px" y="0px"
	 viewBox="0 0 45 45" enable-background="new 0 0 45 45" xml:space="preserve">
<g>
	<g>
		<g>
			<path fill="#333333" d="M41.99,5.85h-7.08c-1.31-3.38-4.59-5.79-8.43-5.79c-1.28,0-2.5,0.27-3.61,0.76
				c-1.12-0.49-2.35-0.76-3.63-0.76c-3.77,0-7.1,2.31-8.44,5.79h-0.67H3.01L0,44.94h13.14h1.39H45L41.99,5.85z M26.48,1.51
				c3.02,0,5.63,1.78,6.86,4.34h-5.66c-0.64-1.68-1.74-3.08-3.14-4.08C25.16,1.6,25.81,1.51,26.48,1.51z M26.11,5.85h-6.48
				c0.69-1.45,1.83-2.66,3.24-3.43C24.26,3.18,25.41,4.37,26.11,5.85z M19.24,1.51c0.68,0,1.34,0.09,1.97,0.26
				c-1.42,1.02-2.52,2.43-3.16,4.08h-3.51h-2.16C13.62,3.22,16.27,1.51,19.24,1.51z M10.25,7.3l2.69,35.02L8.02,37.4V7.3H10.25z
				 M7.3,38.73l4.77,4.77H2.53L7.3,38.73z M4.35,7.3h2.23V37.4l-4.92,4.92L4.35,7.3z M14.48,43.49L11.7,7.3h2.84h3.08
				c-0.12,0.58-0.18,1.19-0.18,1.81v0.5c-0.84,0.3-1.45,1.1-1.45,2.04c0,1.2,0.97,2.17,2.17,2.17s2.17-0.97,2.17-2.17
				c0-0.94-0.61-1.74-1.45-2.04v-0.5c0-0.62,0.08-1.23,0.23-1.81h14.75c0.14,0.58,0.23,1.19,0.23,1.81v0.5
				c-0.84,0.3-1.45,1.1-1.45,2.04c0,1.2,0.97,2.17,2.17,2.17c1.2,0,2.17-0.97,2.17-2.17c0-0.94-0.61-1.74-1.45-2.04v-0.5
				c0-0.62-0.06-1.22-0.18-1.81h5.3l2.78,36.2h-28.9H14.48z M18.88,11.64c0,0.4-0.33,0.72-0.72,0.72c-0.4,0-0.72-0.33-0.72-0.72
				c0-0.4,0.33-0.72,0.72-0.72C18.56,10.92,18.88,11.24,18.88,11.64z M35.53,11.64c0,0.4-0.33,0.72-0.72,0.72
				c-0.4,0-0.72-0.33-0.72-0.72c0-0.4,0.33-0.72,0.72-0.72C35.21,10.92,35.53,11.24,35.53,11.64z"/>
			<g>
				<polygon fill="#FAAF41" points="40.46,38.47 16.83,38.47 15.1,16.81 38.74,16.81 				"/>
			</g>
		</g>
	</g>
	<g>
		<path fill="#333333" d="M21.02,23.39c0-1.83,1.45-3.32,3.4-3.32c1.93,0,3.38,1.45,3.38,3.32c0,1.85-1.43,3.32-3.38,3.32
			C22.47,26.71,21.02,25.24,21.02,23.39z M31.63,22.1l1.23,0.68l-9.2,10.22l-1.21-0.71L31.63,22.1z M25.67,23.39
			c0-0.7-0.52-1.27-1.27-1.27c-0.72,0-1.25,0.56-1.25,1.27c0,0.72,0.52,1.29,1.25,1.29C25.15,24.68,25.67,24.1,25.67,23.39z
			 M27.84,31.36c0-1.83,1.43-3.32,3.38-3.32s3.38,1.49,3.38,3.32c0,1.83-1.43,3.32-3.38,3.32S27.84,33.19,27.84,31.36z M32.47,31.36
			c0-0.72-0.5-1.29-1.25-1.29c-0.74,0-1.25,0.56-1.25,1.29c0,0.72,0.5,1.29,1.25,1.29C31.97,32.65,32.47,32.05,32.47,31.36z"/>
	</g>
</g>
</svg>
