<?xml version="1.0" encoding="utf-8"?>
<!-- Generator: Adobe Illustrator 22.1.0, SVG Export Plug-In . SVG Version: 6.00 Build 0)  -->
<svg version="1.1" id="Layer_1" xmlns="http://www.w3.org/2000/svg" xmlns:xlink="http://www.w3.org/1999/xlink" x="0px" y="0px"
	 width="45px" height="45px" viewBox="0 0 45 45" enable-background="new 0 0 45 45" xml:space="preserve">
<g>
	<g>
		<g>
			<path fill="#333333" d="M22.2,44.9C11.4,40.6,4.4,29.8,4.4,17.6V6.7h1.7c5.9,0,11.1-2.1,16-6.3L22.5,0v0.1l0.4,0.4
				c4.9,4.2,10.1,6.3,16,6.3h1.7v10.8c0,12.3-7,23-17.8,27.3L22.5,45L22.2,44.9z M22.4,2.2c-4.9,4-10.1,6-16.1,6.1H6.1v9.4
				c0,11.6,6.3,21.5,16.4,25.7h0.1h0.1c10.1-4.2,16.4-14,16.4-25.7V8.3h-0.2c-6,0-11.3-2-16.1-6.1l-0.1-0.1L22.4,2.2z"/>
		</g>
	</g>
	<path fill="#FBB040" d="M22.6,30.5c-4.2,0-7.5-3.4-7.5-7.5s3.4-7.5,7.5-7.5s7.5,3.4,7.5,7.5S26.7,30.5,22.6,30.5z"/>
	
		<line fill="none" stroke="#333333" stroke-width="1.4" stroke-linecap="round" stroke-linejoin="round" stroke-miterlimit="10" x1="19.1" y1="22.1" x2="22.3" y2="25.3"/>
	
		<line fill="none" stroke="#333333" stroke-width="1.4" stroke-linecap="round" stroke-linejoin="round" stroke-miterlimit="10" x1="22.3" y1="25.3" x2="32.6" y2="15"/>
</g>
</svg>
