<?xml version="1.0" encoding="utf-8"?>
<!-- Generator: Adobe Illustrator 22.1.0, SVG Export Plug-In . SVG Version: 6.00 Build 0)  -->
<svg version="1.1" id="Layer_1" xmlns="http://www.w3.org/2000/svg" xmlns:xlink="http://www.w3.org/1999/xlink" x="0px" y="0px"
	 width="45px" height="45px" viewBox="0 0 45 45" enable-background="new 0 0 45 45" xml:space="preserve">
<g>
	<g>
		<path fill="#FBB040" d="M31.2,22c-5.2,0-9.3-4.2-9.3-9.3s4.2-9.3,9.3-9.3s9.3,4.2,9.3,9.3S36.3,22,31.2,22z"/>
	</g>
	<path fill="#333333" d="M39.5,28.6c-0.2,0-0.4-0.1-0.5-0.2L35.6,25l-0.1,0c-1,0.3-2.1,0.4-3.2,0.4h-2.2c-7,0-12.7-5.7-12.7-12.7
		C17.3,5.7,23,0,30.1,0h2.2C39.3,0,45,5.7,45,12.7c0,2-0.5,4-1.4,5.8c-0.8,1.6-2,3-3.3,4.1l-0.1,0v5.2c0,0.3-0.2,0.6-0.5,0.7
		C39.7,28.5,39.6,28.6,39.5,28.6z M35.8,23.4c0.2,0,0.4,0.1,0.5,0.2l2.4,2.4v-3.8c0-0.2,0.1-0.4,0.3-0.6c2.9-2.1,4.5-5.4,4.5-9
		c0-6.2-5-11.2-11.2-11.2h-2.2c-6.2,0-11.2,5-11.2,11.2c0,6.2,5,11.2,11.2,11.2h2.2c1.1,0,2.2-0.2,3.3-0.5
		C35.7,23.4,35.7,23.4,35.8,23.4z"/>
	<g>
		<g>
			<path fill="#333333" d="M15.6,45c-0.2,0-0.4-0.1-0.5-0.2l-3.7-3.7H6c-3.3,0-6-2.7-6-6V21.4c0-3.3,2.7-6,6-6H15
				c0.4,0,0.7,0.3,0.7,0.7c0,0.4-0.3,0.7-0.7,0.7H6c-2.5,0-4.6,2.1-4.6,4.6v13.6c0,2.5,2.1,4.6,4.6,4.6h5.7c0.3,0,0.6,0.2,0.7,0.4
				l2.4,2.4v-2.1c0-0.4,0.3-0.7,0.7-0.7h9.6c2.5,0,4.6-2.1,4.6-4.6V29c0-0.4,0.3-0.7,0.7-0.7c0.4,0,0.7,0.3,0.7,0.7v6.1
				c0,3.3-2.7,6-6,6h-8.8l0,3.2c0,0.3-0.2,0.6-0.5,0.7C15.8,45,15.7,45,15.6,45z"/>
		</g>
		<g>
			<path fill="#333333" d="M5.5,28.9c-0.4,0-0.7-0.3-0.7-0.7c0-0.4,0.3-0.7,0.7-0.7h18.7c0.4,0,0.7,0.3,0.7,0.7
				c0,0.4-0.3,0.7-0.7,0.7H5.5z"/>
		</g>
		<g>
			<path fill="#333333" d="M5.5,33.9c-0.4,0-0.7-0.3-0.7-0.7c0-0.4,0.3-0.7,0.7-0.7h18.2c0.4,0,0.7,0.3,0.7,0.7
				c0,0.4-0.3,0.7-0.7,0.7H5.5z"/>
		</g>
		<g>
			<path fill="#333333" d="M5.5,23.9c-0.4,0-0.7-0.3-0.7-0.7c0-0.4,0.3-0.7,0.7-0.7h12.9c0.4,0,0.7,0.3,0.7,0.7
				c0,0.4-0.3,0.7-0.7,0.7H5.5z"/>
		</g>
	</g>
	<g>
		<path fill="#333333" d="M32.3,10.9c0-0.6-0.4-1-1.2-1c-0.8,0-1.3,0.5-1.6,1.2l-1.6-0.9c0.6-1.4,1.8-2.1,3.3-2.1c1.5,0,3,0.9,3,2.7
			c0,2-2.3,2.6-2.3,3.8H30C30,12.8,32.3,12.2,32.3,10.9z M29.8,16.8c0-0.6,0.5-1.1,1.1-1.1c0.6,0,1.1,0.5,1.1,1.1
			c0,0.6-0.5,1.1-1.1,1.1C30.3,17.9,29.8,17.4,29.8,16.8z"/>
	</g>
</g>
</svg>
