<?xml version="1.0" encoding="utf-8"?>
<!-- Generator: Adobe Illustrator 22.1.0, SVG Export Plug-In . SVG Version: 6.00 Build 0)  -->
<svg version="1.1" id="Layer_1" xmlns="http://www.w3.org/2000/svg" xmlns:xlink="http://www.w3.org/1999/xlink" x="0px" y="0px"
	 width="45px" height="45px" viewBox="0 0 45 45" enable-background="new 0 0 45 45" xml:space="preserve">
<g>
	<g>
		<path fill="#333333" d="M9.5,44.8c-1.6,0-3.5-1.2-4.3-2.6c-0.8-1.3-0.8-2.4-0.8-3.9V6.9c0-1.5,0-3.3,0.5-4.5
			c0.6-1.4,1.7-2.1,3.5-2.1h27.6c0.4,0,0.7,0.3,0.7,0.7v5.5h3.1c0.4,0,0.7,0.3,0.7,0.7v37c0,0.4-0.3,0.7-0.7,0.7H9.5z M8.8,1.6
			c-0.9,0-1.7,0.3-2.2,0.8c-1.1,1.1-1,3.2-0.9,5.1c0,0.5,0.1,0.9,0.1,1.4v30.3c0,4.3,3.9,4.3,6.2,4.3h27.1V7.8H11.6
			c-1.1,0-2.4-0.7-3.1-1.6C8.1,5.7,7.7,4.9,8,4c0.4-1.2,1.4-1.3,2.5-1.3l0.7,0h20.8c0.2,0,0.5,0.1,0.6,0.3L34,6.4h1.5V1.6H8.8z
			 M9.4,4.7c0,0,0,0.1,0,0.1c0.1,0.5,0.7,1,1,1.2c0.3,0.2,0.6,0.3,1,0.4l0.1,0h21l-1-2.2H9.7l0,0l0,0l-0.1,0l-0.2,0l0,0.2v0.3
			L9.4,4.7z"/>
		<path fill="#333333" d="M9.9,10.3c0,10.2,0,20.5,0,30.7c0,0.9,1.4,0.9,1.4,0c0-10.2,0-20.5,0-30.7C11.3,9.4,9.9,9.4,9.9,10.3z"/>
	</g>
	<path fill="#FBB040" d="M24.3,32.8c-4.2,0-7.5-3.4-7.5-7.5s3.4-7.5,7.5-7.5s7.5,3.4,7.5,7.5S28.5,32.8,24.3,32.8z"/>
	
		<line fill="none" stroke="#333333" stroke-width="1.4" stroke-linecap="round" stroke-linejoin="round" stroke-miterlimit="10" x1="20.8" y1="24.3" x2="24" y2="27.5"/>
	
		<line fill="none" stroke="#333333" stroke-width="1.4" stroke-linecap="round" stroke-linejoin="round" stroke-miterlimit="10" x1="24" y1="27.5" x2="34.4" y2="17.2"/>
</g>
</svg>
