<?xml version="1.0" encoding="utf-8"?>
<!-- Generator: Adobe Illustrator 22.1.0, SVG Export Plug-In . SVG Version: 6.00 Build 0)  -->
<svg version="1.1" id="Layer_1" xmlns="http://www.w3.org/2000/svg" xmlns:xlink="http://www.w3.org/1999/xlink" x="0px" y="0px"
	 width="45px" height="45px" viewBox="0 0 45 45" enable-background="new 0 0 45 45" xml:space="preserve">
<g>
	<g>
		<g>
			<g>
				<path fill="#333333" d="M43.7,23c-0.4,0-0.8-0.3-0.8-0.8c0-5.5-2.1-10.7-6-14.5c-3.9-3.9-9-6-14.5-6c-0.4,0-0.8-0.2-0.8-0.7
					c0-0.4,0.2-0.8,0.7-0.8c5.8,0,11.4,2.3,15.6,6.5c4.2,4.2,6.5,9.7,6.6,15.6C44.5,22.6,44.1,23,43.7,23z"/>
			</g>
		</g>
		<g>
			<g>
				<path fill="#333333" d="M36.8,23c-0.3,0-0.7-0.3-0.7-0.8c0.1-3.5-1.4-7.1-4-9.7c-2.5-2.6-6-4.1-9.7-4.1c-0.3,0-0.8-0.3-0.8-0.7
					c0-0.4,0.3-0.8,0.8-0.8c4.2,0,7.9,1.6,10.7,4.5c2.9,2.8,4.5,6.7,4.5,10.8C37.5,22.5,37.3,23,36.8,23z"/>
			</g>
		</g>
		<g>
			<g>
				<path fill="#333333" d="M30.1,23c-0.4,0-0.8-0.3-0.8-0.8c0-1.9-0.7-3.7-2.1-5c-1.4-1.4-3.1-2.1-5-2.1c-0.4,0-0.8-0.3-0.8-0.8
					c0-0.4,0.3-0.8,0.8-0.8c2.3,0,4.5,0.9,6,2.5c1.6,1.6,2.5,3.7,2.5,6c0.1,0.4,0,0.6-0.1,0.7C30.5,22.9,30.3,23,30.1,23z"/>
			</g>
		</g>
	</g>
	<g>
		<g>
			<path fill="none" d="M18.9,29.8c-0.2,0.2-0.2,0.5-0.1,0.8c0.2,0.2,0.3,0.3,0.5,0.5c0.3,0.3,0.8,0.3,1.1,0c0.3-0.3,0.3-0.8,0-1.1
				c0,0,0,0,0,0c-0.1-0.1-0.2-0.2-0.4-0.3C19.7,29.4,19.2,29.5,18.9,29.8z"/>
		</g>
		<g>
			<path fill="#FBB040" d="M41.3,35.9l-7.8-7.5c-0.4-0.4-1-0.6-1.6-0.6c-0.6,0-1.1,0.2-1.6,0.6L27.7,31l10.9,10.4
				c0.2-0.2,0.4-0.3,0.6-0.5l2.1-2c0.4-0.4,0.6-0.9,0.6-1.5S41.7,36.3,41.3,35.9z"/>
		</g>
	</g>
	<g>
		<path fill="#FBB040" d="M17.4,12.9l-8-7.7C9,4.8,8.4,4.6,7.8,4.6c-0.6,0-1.1,0.2-1.6,0.6L3.5,7.8l11.2,10.6
			c0.2-0.2,0.4-0.3,0.6-0.5l2.1-2c0.4-0.4,0.6-0.9,0.6-1.5S17.8,13.3,17.4,12.9z"/>
	</g>
	<g>
		<path fill="#333333" d="M29.6,44.8c-7.2,0-14.1-4.6-17.4-7L12,37.6c0,0-0.1-0.1-0.1-0.1C-6,21.7,2.5,9,2.6,8.9
			c0.3-0.4,0.8-0.5,1.3-0.2c0.4,0.3,0.5,0.8,0.2,1.3l0,0c-0.3,0.5-7.6,11.5,9,26.2c0.1,0,0.1,0.1,0.2,0.2c4.1,3.2,14.6,10,23.3,4.8
			c0.4-0.3,1-0.1,1.2,0.3c0.3,0.4,0.1,1-0.3,1.2C34.9,44.1,32.2,44.8,29.6,44.8z"/>
	</g>
	<g>
		<path fill="#333333" d="M25.3,34.7c-1.9,0-4.5-1.6-7.9-4.7l-0.2-0.2c0,0-0.1,0-0.1-0.1c-4.4-4.3-6.4-7.6-6-9.8
			c0.3-1.4,1.3-1.8,1.4-1.9c0.5-0.2,1,0,1.2,0.5c0.2,0.5,0,1-0.5,1.2c0,0-0.3,0.2-0.4,0.6c-0.1,0.7,0.2,3,5.5,8.1
			c0.1,0.1,0.1,0.1,0.2,0.2c4.7,4.3,6.5,4.3,7,4.2c0.2,0,0.5-0.1,0.7-0.6c0.2-0.5,0.7-0.7,1.2-0.5c0.5,0.2,0.7,0.7,0.5,1.2
			c-0.5,1.1-1.3,1.5-1.9,1.7C25.7,34.7,25.5,34.7,25.3,34.7z"/>
	</g>
</g>
</svg>
