<?xml version="1.0" encoding="utf-8"?>
<!-- Generator: Adobe Illustrator 16.0.0, SVG Export Plug-In . SVG Version: 6.00 Build 0)  -->
<!DOCTYPE svg PUBLIC "-//W3C//DTD SVG 1.1//EN" "http://www.w3.org/Graphics/SVG/1.1/DTD/svg11.dtd">
<svg version="1.1" id="Layer_1" xmlns="http://www.w3.org/2000/svg" xmlns:xlink="http://www.w3.org/1999/xlink" x="0px" y="0px"
	 width="16.852px" height="17.831px" viewBox="0 0 16.852 17.831" enable-background="new 0 0 16.852 17.831" xml:space="preserve">
<g id="XMLID_539_">
	<path id="XMLID_543_" fill="#808080" d="M3.914,17.443h9.023c1.166,0,2.112-0.948,2.112-2.112V9.552
		c0-1.069-0.802-1.955-1.835-2.093V5.177c0-2.64-2.147-4.789-4.788-4.789c-2.64,0-4.79,2.149-4.79,4.789v2.282
		C2.604,7.597,1.802,8.482,1.802,9.552v5.779C1.802,16.495,2.751,17.443,3.914,17.443z M2.592,9.552
		c0-0.728,0.595-1.322,1.322-1.322h9.023c0.729,0,1.325,0.595,1.325,1.322v5.779c0,0.729-0.596,1.322-1.325,1.322H3.914
		c-0.728,0-1.322-0.593-1.322-1.322V9.552z M8.427,1.178c2.204,0,3.999,1.794,3.999,3.999v2.263h-0.633V5.177
		c0-1.857-1.509-3.367-3.366-3.367c-1.858,0-3.368,1.51-3.368,3.367v2.263h-0.63V5.177C4.429,2.972,6.221,1.178,8.427,1.178z
		 M11.005,7.439H5.848V5.177c0-1.422,1.156-2.579,2.579-2.579c1.421,0,2.578,1.157,2.578,2.579V7.439z"/>
	<path id="XMLID_540_" fill="#808080" d="M7.639,14.581h1.575c0.174,0,0.317-0.138,0.317-0.314v-3.65
		c0-0.176-0.144-0.318-0.317-0.318H7.639c-0.175,0-0.315,0.143-0.315,0.318v3.65C7.323,14.443,7.464,14.581,7.639,14.581z
		 M7.952,10.932h0.944v3.022H7.952V10.932z"/>
</g>
</svg>
